# xmcd
#
# Track frame offsets:
#	150
#	14035
#	31970
#	49995
#	68639
#	88352
#	107574
#	125585
#	144616
#	162789
#	172978
#	196922
#	215092
#	235893
#	249779
#	270684
#	289304
#	311072
#	328582
#
# Disc length: 4609
#
# Revision: 2
# Processed by: cddbd v1.5.1PL0 Copyright (c) Steve Scherf et al.
# Submitted via: CDex 1.50
# Normalized: r1:DSETVAR1,TDELIM( - )
#
DISCID=1d11ff13
DTITLE=Various Artist - Vive el Caribe! Vol. 3
DYEAR=2004
DGENRE=Salsa
TTITLE0=Aventura - Cuando volveràs (edit2004)
TTITLE1=Cubanito 20.02 - Pìdeme
TTITLE2=Papi Sanchez - Dilema
TTITLE3=Celia Cruz - Rie Y llora
TTITLE4=Gloria Estefan - Hoy (Salsa Mix)
TTITLE5=Miguel Enriquez - Abre Que Voy
TTITLE6=Rubby Perez - Tonto Corazòn
TTITLE7=Tego Calderon - Planté Bandera
TTITLE8=Mala Fe y Julio Acosta - Party in Miami
TTITLE9=La Factoria - No Voy a llorar
TTITLE10=Antony Santos - Sin Ti
TTITLE11=Sexappeal - Meneando la cola
TTITLE12=Tmc - Que Swing
TTITLE13=Hector y Tito ft. Don Omar Y Glory - Morena
TTITLE14=Ivan Caceres y Su Borgolandia - Campana Mayoral
TTITLE15=Charlie D'Cali y Su Salsa - Picosito Yemyeré
TTITLE16=Yumurì - Que me pidan regalao
TTITLE17=Adalberto Alvarez y su son - Para bailar Casino
TTITLE18=Lady Ragga - Come and get it
EXTD=YEAR: 2004
EXTT0=
EXTT1=
EXTT2=
EXTT3=
EXTT4=
EXTT5=
EXTT6=
EXTT7=
EXTT8=
EXTT9=
EXTT10=
EXTT11=
EXTT12=
EXTT13=
EXTT14=
EXTT15=
EXTT16=
EXTT17=
EXTT18=
PLAYORDER=
